<?xml version="1.0" standalone="no"?><!-- Generator: Gravit.io --><svg xmlns="http://www.w3.org/2000/svg" xmlns:xlink="http://www.w3.org/1999/xlink" style="isolation:isolate" viewBox="0 0 792 612" width="792" height="612"><defs><clipPath id="_clipPath_ZAc6Jgxh0tpTlfkML2TObF6wyyebNwV0"><rect width="792" height="612"/></clipPath></defs><g clip-path="url(#_clipPath_ZAc6Jgxh0tpTlfkML2TObF6wyyebNwV0)"><g id="Group" filter="url(#VxpW763a9V0WEbNd2N1Mf3LkOb4MNhUf)"><g id="Group"><path d=" M 60.926915 343.804985 L 60.926915 343.804985 L 55.338206 347.297929 L 55.338206 347.297929 Q 48.102823 337.617485 35.578125 337.617485 L 35.578125 337.617485 L 35.578125 337.617485 Q 25.548387 337.617485 18.936744 344.054481 L 18.936744 344.054481 L 18.936744 344.054481 Q 12.325101 350.491477 12.325101 359.722828 L 12.325101 359.722828 L 12.325101 359.722828 Q 12.325101 365.710731 15.368952 371.024995 L 15.368952 371.024995 L 15.368952 371.024995 Q 18.412802 376.339259 23.702117 379.233413 L 23.702117 379.233413 L 23.702117 379.233413 Q 28.991431 382.127566 35.578125 382.127566 L 35.578125 382.127566 L 35.578125 382.127566 Q 47.703629 382.127566 55.338206 372.546921 L 55.338206 372.546921 L 60.926915 376.189562 L 60.926915 376.189562 Q 56.984879 382.077667 50.373236 385.296165 L 50.373236 385.296165 L 50.373236 385.296165 Q 43.761593 388.514663 35.27873 388.514663 L 35.27873 388.514663 L 35.27873 388.514663 Q 22.354839 388.514663 13.797127 380.281296 L 13.797127 380.281296 L 13.797127 380.281296 Q 5.239415 372.047929 5.239415 360.271719 L 5.239415 360.271719 L 5.239415 360.271719 Q 5.239415 352.287848 9.2563 345.476608 L 9.2563 345.476608 L 9.2563 345.476608 Q 13.273185 338.665368 20.234123 334.84808 L 20.234123 334.84808 L 20.234123 334.84808 Q 27.19506 331.030792 35.87752 331.030792 L 35.87752 331.030792 L 35.87752 331.030792 Q 41.266633 331.030792 46.331401 332.677465 L 46.331401 332.677465 L 46.331401 332.677465 Q 51.396169 334.324138 54.939012 336.993745 L 54.939012 336.993745 L 54.939012 336.993745 Q 58.481855 339.663352 60.926915 343.804985 Z  M 73.301915 388.464763 L 73.301915 312.56809 L 80.387601 312.56809 L 80.387601 388.464763 L 73.301915 388.464763 L 73.301915 388.464763 Z  M 97.403226 311.220812 L 97.403226 311.220812 L 97.403226 311.220812 Q 99.798387 311.220812 101.519909 312.917384 L 101.519909 312.917384 L 101.519909 312.917384 Q 103.241431 314.613957 103.241431 317.009118 L 103.241431 317.009118 L 103.241431 317.009118 Q 103.241431 319.40428 101.519909 321.125802 L 101.519909 321.125802 L 101.519909 321.125802 Q 99.798387 322.847324 97.403226 322.847324 L 97.403226 322.847324 L 97.403226 322.847324 Q 95.008065 322.847324 93.311492 321.125802 L 93.311492 321.125802 L 93.311492 321.125802 Q 91.614919 319.40428 91.614919 317.009118 L 91.614919 317.009118 L 91.614919 317.009118 Q 91.614919 314.613957 93.311492 312.917384 L 93.311492 312.917384 L 93.311492 312.917384 Q 95.008065 311.220812 97.403226 311.220812 Z  M 93.910282 388.464763 L 93.910282 333.725348 L 100.946069 333.725348 L 100.946069 388.464763 L 93.910282 388.464763 L 93.910282 388.464763 Z  M 115.466734 388.464763 L 115.466734 367.706699 L 115.366935 361.868493 L 115.366935 361.868493 Q 115.217238 357.577163 115.71623 354.583211 L 115.71623 354.583211 L 115.71623 354.583211 Q 116.814012 345.152263 120.506552 340.761134 L 120.506552 340.761134 L 120.506552 340.761134 Q 124.099294 336.918897 127.841734 334.82313 L 127.841734 334.82313 L 127.841734 334.82313 Q 134.029234 332.178473 141.963206 332.328171 L 141.963206 332.328171 L 141.963206 332.328171 Q 148.150706 332.328171 153.415071 335.44687 L 153.415071 335.44687 L 153.415071 335.44687 Q 158.679435 338.56557 160.924899 343.829935 L 160.924899 343.829935 L 160.924899 343.829935 Q 163.170363 349.0943 163.170363 360.321618 L 163.170363 360.321618 L 163.170363 388.464763 L 156.184476 388.464763 L 156.184476 362.367485 L 156.184476 362.367485 Q 156.184476 352.886638 155.386089 349.69309 L 155.386089 349.69309 L 155.386089 349.69309 Q 154.138609 344.254078 150.446069 341.983665 L 150.446069 341.983665 L 150.446069 341.983665 Q 146.753528 339.713251 139.518145 339.713251 L 139.518145 339.713251 L 139.518145 339.713251 Q 133.131048 339.713251 128.141129 343.405792 L 128.141129 343.405792 L 128.141129 343.405792 Q 123.15121 347.098332 123.500504 353.485429 L 123.500504 353.485429 L 123.500504 353.485429 Q 122.552419 357.577163 122.552419 368.405288 L 122.552419 368.405288 L 122.552419 388.464763 L 115.466734 388.464763 L 115.466734 388.464763 Z  M 180.635081 311.220812 L 180.635081 311.220812 L 180.635081 311.220812 Q 183.030242 311.220812 184.751764 312.917384 L 184.751764 312.917384 L 184.751764 312.917384 Q 186.473286 314.613957 186.473286 317.009118 L 186.473286 317.009118 L 186.473286 317.009118 Q 186.473286 319.40428 184.751764 321.125802 L 184.751764 321.125802 L 184.751764 321.125802 Q 183.030242 322.847324 180.635081 322.847324 L 180.635081 322.847324 L 180.635081 322.847324 Q 178.239919 322.847324 176.543347 321.125802 L 176.543347 321.125802 L 176.543347 321.125802 Q 174.846774 319.40428 174.846774 317.009118 L 174.846774 317.009118 L 174.846774 317.009118 Q 174.846774 314.613957 176.543347 312.917384 L 176.543347 312.917384 L 176.543347 312.917384 Q 178.239919 311.220812 180.635081 311.220812 Z  M 177.142137 388.464763 L 177.142137 333.725348 L 184.177923 333.725348 L 184.177923 388.464763 L 177.142137 388.464763 L 177.142137 388.464763 Z  M 249.34627 341.908816 L 249.34627 341.908816 L 249.34627 341.908816 Q 253.837198 349.393695 254.735383 356.629078 L 254.735383 356.629078 L 254.735383 356.629078 Q 254.735383 408.574138 254.735383 408.47434 L 254.735383 408.47434 L 247.749496 408.47434 L 247.749496 377.936034 L 247.749496 377.936034 Q 243.308468 383.375046 237.819556 386.044653 L 237.819556 386.044653 L 237.819556 386.044653 Q 232.330645 388.714259 225.793851 388.714259 L 225.793851 388.714259 L 225.793851 388.714259 Q 214.217238 388.714259 205.983871 380.281296 L 205.983871 380.281296 L 205.983871 380.281296 Q 197.750504 371.848332 197.750504 359.822626 L 197.750504 359.822626 L 197.750504 359.822626 Q 197.750504 347.996517 206.03377 339.613453 L 206.03377 339.613453 L 206.03377 339.613453 Q 214.317036 331.230388 225.993448 331.230388 L 225.993448 331.230388 L 225.993448 331.230388 Q 232.67994 331.230388 238.543095 333.800197 L 238.543095 333.800197 L 238.543095 333.800197 Q 244.40625 336.370005 249.34627 341.908816 Z  M 226.592238 337.96678 L 226.592238 337.96678 L 226.592238 337.96678 Q 220.654234 337.96678 215.689264 340.885882 L 215.689264 340.885882 L 215.689264 340.885882 Q 210.724294 343.804985 207.780242 348.994501 L 207.780242 348.994501 L 207.780242 348.994501 Q 204.83619 354.184017 204.83619 360.072122 L 204.83619 360.072122 L 204.83619 360.072122 Q 204.83619 365.860429 207.805192 371.174693 L 207.805192 371.174693 L 207.805192 371.174693 Q 210.774194 376.488957 215.789063 379.40806 L 215.789063 379.40806 L 215.789063 379.40806 Q 220.803931 382.327163 226.49244 382.327163 L 226.49244 382.327163 L 226.49244 382.327163 Q 232.280746 382.327163 237.470262 379.40806 L 237.470262 379.40806 L 237.470262 379.40806 Q 242.659778 376.488957 245.454133 371.474088 L 245.454133 371.474088 L 245.454133 371.474088 Q 248.248488 366.459219 248.248488 360.271719 L 248.248488 360.271719 L 248.248488 360.271719 Q 248.248488 350.740973 241.96119 344.353876 L 241.96119 344.353876 L 241.96119 344.353876 Q 235.673891 337.96678 226.592238 337.96678 Z  M 267.90877 358.774743 L 267.90877 332.427969 L 274.994456 332.427969 L 274.994456 357.976356 L 274.994456 357.976356 Q 274.994456 367.357405 275.99244 370.850348 L 275.99244 370.850348 L 275.99244 370.850348 Q 277.489415 375.890167 281.730847 378.809269 L 281.730847 378.809269 L 281.730847 378.809269 Q 285.972278 381.728372 291.910282 381.728372 L 291.910282 381.728372 L 291.910282 381.728372 Q 297.798387 381.728372 301.890121 378.884118 L 301.890121 378.884118 L 301.890121 378.884118 Q 305.981855 376.039864 307.52873 371.399239 L 307.52873 371.399239 L 307.52873 371.399239 Q 308.626512 368.25559 308.626512 357.976356 L 308.626512 357.976356 L 308.626512 332.427969 L 315.811996 332.427969 L 315.811996 359.323634 L 315.811996 359.323634 Q 315.811996 370.650751 313.142389 376.364209 L 313.142389 376.364209 L 313.142389 376.364209 Q 310.472782 382.077667 305.183468 385.296165 L 305.183468 385.296165 L 305.183468 385.296165 Q 299.894153 388.514663 291.910282 388.514663 L 291.910282 388.514663 L 291.910282 388.514663 Q 283.876512 388.514663 278.537298 385.296165 L 278.537298 385.296165 L 278.537298 385.296165 Q 273.198085 382.077667 270.553427 376.264411 L 270.553427 376.264411 L 270.553427 376.264411 Q 267.90877 370.451155 267.90877 358.774743 L 267.90877 358.774743 L 267.90877 358.774743 Z  M 377.4375 369.004078 L 377.4375 369.004078 L 383.325605 372.147727 L 383.325605 372.147727 Q 380.481351 377.886134 376.639113 381.379078 L 376.639113 381.379078 L 376.639113 381.379078 Q 372.796875 384.872022 368.006552 386.693342 L 368.006552 386.693342 L 368.006552 386.693342 Q 363.21623 388.514663 357.178427 388.514663 L 357.178427 388.514663 L 357.178427 388.514663 Q 343.805444 388.514663 336.270665 379.757354 L 336.270665 379.757354 L 336.270665 379.757354 Q 328.735887 371.000046 328.735887 359.972324 L 328.735887 359.972324 L 328.735887 359.972324 Q 328.735887 349.543392 335.122984 341.409824 L 335.122984 341.409824 L 335.122984 341.409824 Q 343.206653 331.030792 356.829133 331.030792 L 356.829133 331.030792 L 356.829133 331.030792 Q 370.751008 331.030792 379.134073 341.65932 L 379.134073 341.65932 L 379.134073 341.65932 Q 385.072077 349.144199 385.121976 360.321618 L 385.121976 360.321618 L 335.97127 360.321618 L 335.97127 360.321618 Q 336.170867 369.902263 342.058972 376.014915 L 342.058972 376.014915 L 342.058972 376.014915 Q 347.947077 382.127566 356.579637 382.127566 L 356.579637 382.127566 L 356.579637 382.127566 Q 360.771169 382.127566 364.713206 380.65554 L 364.713206 380.65554 L 364.713206 380.65554 Q 368.655242 379.183513 371.424647 376.788352 L 371.424647 376.788352 L 371.424647 376.788352 Q 374.194052 374.393191 377.4375 369.004078 Z  M 336.719758 354.283816 L 377.4375 354.283816 L 377.4375 354.283816 Q 376.040323 348.645207 373.345766 345.277011 L 373.345766 345.277011 L 373.345766 345.277011 Q 370.65121 341.908816 366.210181 339.837999 L 366.210181 339.837999 L 366.210181 339.837999 Q 361.769153 337.767183 356.879032 337.767183 L 356.879032 337.767183 L 356.879032 337.767183 Q 348.845262 337.767183 343.056956 342.956699 L 343.056956 342.956699 L 343.056956 342.956699 Q 338.865423 346.749038 336.719758 354.283816 L 336.719758 354.283816 L 336.719758 354.283816 Z " fill-rule="evenodd" fill="rgb(162,162,162)"/><path d=" M 507.923891 388.464763 L 507.923891 367.257606 L 507.923891 358.525247 L 507.923891 358.525247 Q 508.822077 347.347828 512.614415 342.158312 L 512.614415 342.158312 L 512.614415 342.158312 Q 515.758065 337.417888 520.847782 334.623534 L 520.847782 334.623534 L 520.847782 334.623534 Q 526.137097 331.429985 533.671875 332.328171 L 533.671875 332.328171 L 533.671875 332.328171 Q 537.613911 332.328171 540.832409 333.899995 L 540.832409 333.899995 L 540.832409 333.899995 Q 544.050907 335.47182 546.296371 337.94183 L 546.296371 337.94183 L 546.296371 337.94183 Q 548.541835 340.41184 550.238407 345.301961 L 550.238407 345.301961 L 550.238407 345.301961 Q 552.384073 338.964763 557.673387 335.771215 L 557.673387 335.771215 L 557.673387 335.771215 Q 562.962702 332.577667 571.146169 332.328171 L 571.146169 332.328171 L 571.146169 332.328171 Q 576.834677 332.328171 581.175907 335.172425 L 581.175907 335.172425 L 581.175907 335.172425 Q 585.517137 338.016679 587.637853 343.181245 L 587.637853 343.181245 L 587.637853 343.181245 Q 589.758569 348.345812 589.758569 358.575147 L 589.758569 358.575147 L 589.758569 388.464763 L 582.573085 388.464763 L 582.573085 358.575147 L 582.573085 358.575147 Q 582.573085 349.792888 581.325605 346.499542 L 581.325605 346.499542 L 581.325605 346.499542 Q 580.078125 343.206195 577.034274 341.185278 L 577.034274 341.185278 L 577.034274 341.185278 Q 573.990423 339.16436 569.699093 339.16436 L 569.699093 339.16436 L 569.699093 339.16436 Q 561.615423 339.713251 556.775202 346.998534 L 556.775202 346.998534 L 556.775202 346.998534 Q 554.529738 350.092284 553.382056 360.720812 L 553.382056 360.720812 L 553.382056 388.464763 L 546.34627 388.464763 L 546.34627 360.421417 L 546.34627 360.421417 Q 546.34627 350.541376 544.150706 346.973584 L 544.150706 346.973584 L 544.150706 346.973584 Q 541.955141 343.405792 538.91129 341.285076 L 538.91129 341.285076 L 538.91129 341.285076 Q 535.86744 339.16436 532.374496 339.16436 L 532.374496 339.16436 L 532.374496 339.16436 Q 527.484375 339.16436 522.993448 341.65932 L 522.993448 341.65932 L 522.993448 341.65932 Q 518.50252 344.15428 516.506552 349.119249 L 516.506552 349.119249 L 516.506552 349.119249 Q 514.510585 354.084219 514.909778 365.261638 L 514.909778 365.261638 L 514.909778 388.464763 L 507.923891 388.464763 L 507.923891 388.464763 Z  M 630.376512 331.030792 L 630.376512 331.030792 L 630.376512 331.030792 Q 643.001008 331.030792 651.334173 340.162344 L 651.334173 340.162344 L 651.334173 340.162344 Q 658.868952 348.545409 658.868952 359.972324 L 658.868952 359.972324 L 658.868952 359.972324 Q 658.868952 371.399239 650.885081 379.956951 L 650.885081 379.956951 L 650.885081 379.956951 Q 642.90121 388.514663 630.376512 388.514663 L 630.376512 388.514663 L 630.376512 388.514663 Q 617.801915 388.514663 609.842994 379.956951 L 609.842994 379.956951 L 609.842994 379.956951 Q 601.884073 371.399239 601.884073 359.972324 L 601.884073 359.972324 L 601.884073 359.972324 Q 601.884073 348.595308 609.418851 340.212243 L 609.418851 340.212243 L 609.418851 340.212243 Q 617.752016 331.030792 630.376512 331.030792 Z  M 630.376512 337.91688 L 630.376512 337.91688 L 630.376512 337.91688 Q 621.644153 337.91688 615.356855 344.403776 L 615.356855 344.403776 L 615.356855 344.403776 Q 609.069556 350.890671 609.069556 360.072122 L 609.069556 360.072122 L 609.069556 360.072122 Q 609.069556 366.010126 611.93876 371.174693 L 611.93876 371.174693 L 611.93876 371.174693 Q 614.807964 376.339259 619.698085 379.108665 L 619.698085 379.108665 L 619.698085 379.108665 Q 624.588206 381.87807 630.376512 381.87807 L 630.376512 381.87807 L 630.376512 381.87807 Q 636.264617 381.87807 641.129788 379.108665 L 641.129788 379.108665 L 641.129788 379.108665 Q 645.99496 376.339259 648.839214 371.174693 L 648.839214 371.174693 L 648.839214 371.174693 Q 651.683468 366.010126 651.683468 360.072122 L 651.683468 360.072122 L 651.683468 360.072122 Q 651.683468 350.890671 645.396169 344.403776 L 645.396169 344.403776 L 645.396169 344.403776 Q 639.108871 337.91688 630.376512 337.91688 Z  M 697.690524 331.030792 L 697.690524 331.030792 L 697.690524 331.030792 Q 710.31502 331.030792 718.648185 340.162344 L 718.648185 340.162344 L 718.648185 340.162344 Q 726.182964 348.545409 726.182964 359.972324 L 726.182964 359.972324 L 726.182964 359.972324 Q 726.182964 371.399239 718.199093 379.956951 L 718.199093 379.956951 L 718.199093 379.956951 Q 710.215222 388.514663 697.690524 388.514663 L 697.690524 388.514663 L 697.690524 388.514663 Q 685.115927 388.514663 677.157006 379.956951 L 677.157006 379.956951 L 677.157006 379.956951 Q 669.198085 371.399239 669.198085 359.972324 L 669.198085 359.972324 L 669.198085 359.972324 Q 669.198085 348.595308 676.732863 340.212243 L 676.732863 340.212243 L 676.732863 340.212243 Q 685.066028 331.030792 697.690524 331.030792 Z  M 697.690524 337.91688 L 697.690524 337.91688 L 697.690524 337.91688 Q 688.958165 337.91688 682.670867 344.403776 L 682.670867 344.403776 L 682.670867 344.403776 Q 676.383569 350.890671 676.383569 360.072122 L 676.383569 360.072122 L 676.383569 360.072122 Q 676.383569 366.010126 679.252772 371.174693 L 679.252772 371.174693 L 679.252772 371.174693 Q 682.121976 376.339259 687.012097 379.108665 L 687.012097 379.108665 L 687.012097 379.108665 Q 691.902218 381.87807 697.690524 381.87807 L 697.690524 381.87807 L 697.690524 381.87807 Q 703.578629 381.87807 708.4438 379.108665 L 708.4438 379.108665 L 708.4438 379.108665 Q 713.308972 376.339259 716.153226 371.174693 L 716.153226 371.174693 L 716.153226 371.174693 Q 718.99748 366.010126 718.99748 360.072122 L 718.99748 360.072122 L 718.99748 360.072122 Q 718.99748 350.890671 712.710181 344.403776 L 712.710181 344.403776 L 712.710181 344.403776 Q 706.422883 337.91688 697.690524 337.91688 Z  M 759.166331 388.564562 L 733.967238 333.825147 L 741.452117 333.825147 L 759.765121 373.644703 L 777.928427 333.825147 L 785.463206 333.825147 L 760.41381 388.564562 L 759.166331 388.564562 L 759.166331 388.564562 Z " fill-rule="evenodd" fill="rgb(93,93,93)"/></g></g><defs><filter id="VxpW763a9V0WEbNd2N1Mf3LkOb4MNhUf" x="-200%" y="-200%" width="400%" height="400%"><feOffset xmlns="http://www.w3.org/2000/svg" in="SourceAlpha" result="offOut" dx="0" dy="0"/><feGaussianBlur xmlns="http://www.w3.org/2000/svg" in="offOut" result="blurOut" stdDeviation="0"/><feComponentTransfer xmlns="http://www.w3.org/2000/svg" in="blurOut" result="opacOut"><feFuncA xmlns="http://www.w3.org/2000/svg" type="table" tableValues="0 0.5"/></feComponentTransfer><feBlend xmlns="http://www.w3.org/2000/svg" in="SourceGraphic" in2="opacOut" mode="normal"/></filter></defs><defs><filter id="wMLYzh0cvqAZu484R1fPgluihrUnNyNE" x="-200%" y="-200%" width="400%" height="400%"><feOffset xmlns="http://www.w3.org/2000/svg" in="SourceAlpha" result="offOut" dx="2" dy="0"/><feGaussianBlur xmlns="http://www.w3.org/2000/svg" in="offOut" result="blurOut" stdDeviation="1.5"/><feComponentTransfer xmlns="http://www.w3.org/2000/svg" in="blurOut" result="opacOut"><feFuncA xmlns="http://www.w3.org/2000/svg" type="table" tableValues="0 0.5"/></feComponentTransfer><feBlend xmlns="http://www.w3.org/2000/svg" in="SourceGraphic" in2="opacOut" mode="normal"/></filter></defs><g filter="url(#wMLYzh0cvqAZu484R1fPgluihrUnNyNE)"><linearGradient id="_lgradient_6" x1="84.80508118497548%" y1="27.368213177492084%" x2="41.376332513346206%" y2="59.28885089061933%"><stop offset="0%" stop-opacity="1" style="stop-color:rgb(40,170,226)"/><stop offset="10%" stop-opacity="1" style="stop-color:rgb(36,165,222)"/><stop offset="20%" stop-opacity="1" style="stop-color:rgb(32,159,218)"/><stop offset="30.000000000000004%" stop-opacity="1" style="stop-color:rgb(28,153,214)"/><stop offset="40%" stop-opacity="1" style="stop-color:rgb(24,147,210)"/><stop offset="50%" stop-opacity="1" style="stop-color:rgb(20,141,207)"/><stop offset="60%" stop-opacity="1" style="stop-color:rgb(16,136,203)"/><stop offset="70%" stop-opacity="1" style="stop-color:rgb(12,130,199)"/><stop offset="80%" stop-opacity="1" style="stop-color:rgb(8,124,195)"/><stop offset="89.99999999999999%" stop-opacity="1" style="stop-color:rgb(4,118,191)"/><stop offset="99.99999999999999%" stop-opacity="1" style="stop-color:rgb(0,112,188)"/></linearGradient><path d=" M 487.493305 174.91764 C 486.967473 174.991749 486.185014 175.10534 485.187619 175.33516 L 485.187619 175.33516 C 483.182723 175.77144 480.273095 176.604163 476.722384 178.160369 L 476.722384 178.160369 C 473.167957 179.702427 468.999456 182.016853 464.596538 185.330449 L 464.596538 185.330449 C 460.22124 188.65985 455.623146 193.008496 451.421167 198.466456 L 451.421167 198.466456 C 447.196134 203.903141 443.390935 210.427323 440.356816 217.710771 L 440.356816 217.710771 C 437.314166 224.991738 435.071038 233.023662 433.694785 241.396077 L 433.694785 241.396077 C 432.297685 249.774563 431.814552 258.481445 432.018963 267.221746 L 432.018963 267.221746 C 432.115846 271.594024 432.450802 275.964744 432.879199 280.329926 L 432.879199 280.329926 C 433.120913 282.50678 433.38496 284.684076 433.694188 286.849862 L 433.694188 286.849862 L 434.547236 292.908333 C 434.993027 296.535495 435.445644 300.421473 435.734071 304.198651 L 435.734071 304.198651 C 436.0225 307.985689 436.200135 311.745428 436.269568 315.458623 L 436.269568 315.458623 C 436.37284 322.878492 435.958997 330.102183 434.954959 336.953925 L 434.954959 336.953925 C 433.959144 343.809843 432.32892 350.270611 430.209943 356.230692 L 430.209943 356.230692 C 429.141424 359.208627 427.889041 362.023091 426.597225 364.733452 L 426.597225 364.733452 C 425.29127 367.437686 423.819853 369.951231 422.343676 372.362535 L 422.343676 372.362535 C 419.336519 377.141013 416.034699 381.289042 412.786525 384.771138 L 412.786525 384.771138 C 411.167158 386.518384 409.546152 388.076929 408.013424 389.515135 L 408.013424 389.515135 C 406.467896 390.934859 404.980539 392.187427 403.609166 393.310338 L 403.609166 393.310338 C 400.846338 395.518448 398.520584 397.148179 396.891758 398.206419 L 396.891758 398.206419 C 396.074612 398.728306 395.443432 399.140369 395.009313 399.396207 L 395.009313 399.396207 C 394.577887 399.647167 394.355926 399.777345 394.355926 399.777345 L 394.355926 399.777345 L 394.610302 400.772901 C 394.610302 400.772901 394.884561 400.759897 395.41679 400.734544 L 395.41679 400.734544 C 395.940334 400.697756 396.723678 400.653388 397.729776 400.513983 L 397.729776 400.513983 C 399.742046 400.249535 402.697843 399.73568 406.359741 398.60972 L 406.359741 398.60972 C 408.199729 398.063689 410.205612 397.350296 412.35666 396.455151 L 412.35666 396.455151 C 414.519809 395.577429 416.798448 394.473953 419.187596 393.167095 L 419.187596 393.167095 C 423.961239 390.55434 429.103495 386.979278 434.091705 382.266302 L 434.091705 382.266302 C 439.080012 377.567638 443.90503 371.717716 447.957985 364.866986 L 447.957985 364.866986 C 452.061164 358.046027 455.364458 350.239033 457.668347 341.941784 L 457.668347 341.941784 C 459.978235 333.641133 461.314064 324.863868 461.782094 316.007957 L 461.782094 316.007957 C 462.007553 311.580254 462.007865 307.13225 461.850573 302.692424 L 461.850573 302.692424 C 461.643431 298.245351 461.309028 293.89631 460.746758 289.31474 L 460.746758 289.31474 C 460.463605 287.193178 460.219794 285.260045 459.898022 283.089297 L 459.898022 283.089297 C 459.602974 281.166575 459.353725 279.24861 459.12256 277.334807 L 459.12256 277.334807 C 458.641604 273.510993 458.249801 269.705179 457.957505 265.94433 L 457.957505 265.94433 C 457.39582 258.425041 457.192035 251.059592 457.530586 244.023225 L 457.530586 244.023225 C 457.85175 236.983755 458.665731 230.264371 459.975467 224.011949 L 459.975467 224.011949 C 461.284895 217.761224 463.079181 211.968251 465.271177 206.786875 L 465.271177 206.786875 C 466.357538 204.189918 467.538214 201.745588 468.77222 199.457231 L 468.77222 199.457231 C 469.98284 197.149346 471.292293 195.033521 472.607543 193.078453 L 472.607543 193.078453 C 475.217564 189.147565 477.914983 185.906419 480.310694 183.338235 L 480.310694 183.338235 C 482.710907 180.769991 484.817575 178.884187 486.299959 177.634277 L 486.299959 177.634277 C 487.047746 177.019939 487.629811 176.54238 488.031228 176.239307 L 488.031228 176.239307 C 488.433274 175.942647 488.641475 175.789322 488.641475 175.789322 L 488.641475 175.789322 L 488.299771 174.820075 C 488.299771 174.820075 488.024493 174.853542 487.493305 174.91764 Z " fill="url(#_lgradient_6)"/></g><defs><filter id="DABlai5bjD1GYb9fbUvf5We8wx4xCziU" x="-200%" y="-200%" width="400%" height="400%"><feOffset xmlns="http://www.w3.org/2000/svg" in="SourceAlpha" result="offOut" dx="2" dy="0"/><feGaussianBlur xmlns="http://www.w3.org/2000/svg" in="offOut" result="blurOut" stdDeviation="1.5"/><feComponentTransfer xmlns="http://www.w3.org/2000/svg" in="blurOut" result="opacOut"><feFuncA xmlns="http://www.w3.org/2000/svg" type="table" tableValues="0 0.5"/></feComponentTransfer><feBlend xmlns="http://www.w3.org/2000/svg" in="SourceGraphic" in2="opacOut" mode="normal"/></filter></defs><g filter="url(#DABlai5bjD1GYb9fbUvf5We8wx4xCziU)"><linearGradient id="_lgradient_7" x1="84.80508118497548%" y1="27.368213177492084%" x2="41.376332513346206%" y2="59.28885089061933%"><stop offset="0%" stop-opacity="1" style="stop-color:rgb(40,170,226)"/><stop offset="10%" stop-opacity="1" style="stop-color:rgb(36,165,222)"/><stop offset="20%" stop-opacity="1" style="stop-color:rgb(32,159,218)"/><stop offset="30.000000000000004%" stop-opacity="1" style="stop-color:rgb(28,153,214)"/><stop offset="40%" stop-opacity="1" style="stop-color:rgb(24,147,210)"/><stop offset="50%" stop-opacity="1" style="stop-color:rgb(20,141,207)"/><stop offset="60%" stop-opacity="1" style="stop-color:rgb(16,136,203)"/><stop offset="70%" stop-opacity="1" style="stop-color:rgb(12,130,199)"/><stop offset="80%" stop-opacity="1" style="stop-color:rgb(8,124,195)"/><stop offset="89.99999999999999%" stop-opacity="1" style="stop-color:rgb(4,118,191)"/><stop offset="99.99999999999999%" stop-opacity="1" style="stop-color:rgb(0,112,188)"/></linearGradient><path d=" M 522.575811 182.9186 C 522.238793 183.025196 521.731535 183.179847 521.099598 183.432944 L 521.099598 183.432944 C 519.822552 183.91796 518.003456 184.744201 515.808172 186.035994 L 515.808172 186.035994 C 513.608849 187.325301 511.065241 189.111971 508.355838 191.480507 L 508.355838 191.480507 C 505.662455 193.854691 502.832719 196.841174 500.190435 200.495208 L 500.190435 200.495208 C 497.546633 204.142669 495.078577 208.452928 493.09247 213.320855 L 493.09247 213.320855 C 491.103847 218.182958 489.604676 223.596098 488.792642 229.291997 L 488.792642 229.291997 C 487.976424 234.986205 487.847423 240.947961 488.379762 246.879938 L 488.379762 246.879938 C 488.516334 248.361088 488.636388 249.859008 488.894711 251.321908 L 488.894711 251.321908 L 489.236791 253.534025 C 489.344487 254.274994 489.467172 255.012442 489.637549 255.734345 L 489.637549 255.734345 C 489.939693 257.128912 490.242939 258.527293 490.546021 259.926576 L 490.546021 259.926576 L 491.011314 261.850592 C 491.098174 262.197442 491.146773 262.438706 491.201391 262.696289 L 491.201391 262.696289 L 491.368703 263.469665 L 491.705301 265.089453 C 491.821176 265.647065 491.942568 266.203926 492.037656 266.762308 L 492.037656 266.762308 C 492.251383 267.877928 492.41733 268.994727 492.614718 270.106447 L 492.614718 270.106447 C 492.952375 272.333041 493.233979 274.552083 493.428079 276.758901 L 493.428079 276.758901 C 493.837748 281.172766 493.942602 285.535757 493.757953 289.793204 L 493.757953 289.793204 C 493.398349 298.299123 491.848165 306.413808 489.780022 313.472463 L 489.780022 313.472463 C 489.266645 315.236682 488.721044 316.931353 488.181208 318.559761 L 488.181208 318.559761 C 487.632438 320.182931 487.041394 321.707836 486.497978 323.173151 L 486.497978 323.173151 C 485.936153 324.62614 485.362848 325.979282 484.837872 327.254122 L 484.837872 327.254122 C 484.29378 328.51563 483.768847 329.676559 483.292237 330.739467 L 483.292237 330.739467 C 482.312785 332.841678 481.492454 334.522322 480.90641 335.664045 L 480.90641 335.664045 C 480.611801 336.238671 480.384776 336.678356 480.232261 336.974608 L 480.232261 336.974608 C 480.076046 337.266574 479.995919 337.416216 479.995919 337.416216 L 479.995919 337.416216 L 480.643033 338.215728 C 480.643033 338.215728 480.815242 338.15193 481.146101 338.029866 L 481.146101 338.029866 C 481.469762 337.90288 481.963666 337.727895 482.570007 337.447693 L 482.570007 337.447693 C 483.792954 336.89989 485.567033 336.034967 487.684452 334.707506 L 487.684452 334.707506 C 488.75592 334.055021 489.906096 333.280458 491.123215 332.384366 L 491.123215 332.384366 C 492.358412 331.502346 493.631899 330.47382 494.96173 329.322715 L 494.96173 329.322715 C 496.308941 328.184626 497.655337 326.883069 499.04112 325.458592 L 499.04112 325.458592 C 500.436669 324.039448 501.827253 322.465065 503.200715 320.74764 L 503.200715 320.74764 C 505.948396 317.313749 508.618267 313.280634 510.939888 308.689873 L 510.939888 308.689873 C 513.264885 304.105092 515.222811 298.957437 516.592555 293.431955 L 516.592555 293.431955 C 517.96787 287.910169 518.746316 282.01889 518.857866 276.039615 L 518.857866 276.039615 C 518.903753 273.049989 518.804665 270.038521 518.530909 267.040238 L 518.530909 267.040238 C 518.393727 265.542766 518.22052 264.04598 517.999704 262.559387 L 517.999704 262.559387 C 517.90299 261.812307 517.777137 261.072477 517.65594 260.331739 L 517.65594 260.331739 C 517.540378 259.594654 517.407262 258.855311 517.239458 258.064813 L 517.239458 258.064813 L 517.001656 256.899089 L 516.769699 255.809733 L 516.330766 253.87884 C 516.057653 252.704895 515.785542 251.530256 515.513843 250.358321 L 515.513843 250.358321 C 515.032141 248.134317 514.576746 245.918651 514.225355 243.728173 L 514.225355 243.728173 C 513.493735 239.342858 513.033288 235.03555 512.85779 230.849061 L 512.85779 230.849061 C 512.480104 222.484709 513.30754 214.550106 514.87576 207.55137 L 514.87576 207.55137 C 515.648142 204.054828 516.61444 200.819592 517.593841 197.912497 L 517.593841 197.912497 C 518.563751 194.998256 519.602658 192.450132 520.511502 190.321678 L 520.511502 190.321678 C 521.426262 188.195175 522.243523 186.516657 522.811863 185.353754 L 522.811863 185.353754 C 523.105666 184.773614 523.330017 184.328898 523.481423 184.028884 L 523.481423 184.028884 C 523.629689 183.736351 523.720926 183.579745 523.720926 183.579745 L 523.720926 183.579745 L 523.095681 182.763557 C 523.095681 182.763557 522.924344 182.807852 522.575811 182.9186 Z " fill="url(#_lgradient_7)"/></g><defs><filter id="PDca0R2VIdIHhfYzQl9OW6YS3SfkTLcS" x="-200%" y="-200%" width="400%" height="400%"><feOffset xmlns="http://www.w3.org/2000/svg" in="SourceAlpha" result="offOut" dx="2" dy="0"/><feGaussianBlur xmlns="http://www.w3.org/2000/svg" in="offOut" result="blurOut" stdDeviation="1.5"/><feComponentTransfer xmlns="http://www.w3.org/2000/svg" in="blurOut" result="opacOut"><feFuncA xmlns="http://www.w3.org/2000/svg" type="table" tableValues="0 0.5"/></feComponentTransfer><feBlend xmlns="http://www.w3.org/2000/svg" in="SourceGraphic" in2="opacOut" mode="normal"/></filter></defs><g filter="url(#PDca0R2VIdIHhfYzQl9OW6YS3SfkTLcS)"><linearGradient id="_lgradient_8" x1="84.80508118497548%" y1="27.368213177492084%" x2="41.376332513346206%" y2="59.28885089061933%"><stop offset="0%" stop-opacity="1" style="stop-color:rgb(40,170,226)"/><stop offset="10%" stop-opacity="1" style="stop-color:rgb(36,165,222)"/><stop offset="20%" stop-opacity="1" style="stop-color:rgb(32,159,218)"/><stop offset="30.000000000000004%" stop-opacity="1" style="stop-color:rgb(28,153,214)"/><stop offset="40%" stop-opacity="1" style="stop-color:rgb(24,147,210)"/><stop offset="50%" stop-opacity="1" style="stop-color:rgb(20,141,207)"/><stop offset="60%" stop-opacity="1" style="stop-color:rgb(16,136,203)"/><stop offset="70%" stop-opacity="1" style="stop-color:rgb(12,130,199)"/><stop offset="80%" stop-opacity="1" style="stop-color:rgb(8,124,195)"/><stop offset="89.99999999999999%" stop-opacity="1" style="stop-color:rgb(4,118,191)"/><stop offset="99.99999999999999%" stop-opacity="1" style="stop-color:rgb(0,112,188)"/></linearGradient><path d=" M 560.583719 192.943369 C 560.366386 193.01211 560.039269 193.11184 559.631751 193.275055 L 559.631751 193.275055 C 558.808219 193.587828 557.635135 194.120648 556.219458 194.95369 L 556.219458 194.95369 C 554.801176 195.785128 553.160874 196.937301 551.413656 198.464704 L 551.413656 198.464704 C 549.676768 199.995749 547.851951 201.921648 546.148015 204.278033 L 546.148015 204.278033 C 544.443102 206.630178 542.851521 209.409744 541.570736 212.548934 L 541.570736 212.548934 C 540.288329 215.684369 539.321556 219.175151 538.797898 222.848277 L 538.797898 222.848277 C 538.271542 226.520313 538.188352 230.364882 538.531643 234.190249 L 538.531643 234.190249 C 538.619714 235.145401 538.697133 236.111368 538.863719 237.054751 L 538.863719 237.054751 L 539.084317 238.481284 C 539.153767 238.959114 539.232883 239.434673 539.342754 239.900208 L 539.342754 239.900208 C 539.537599 240.799526 539.733154 241.701303 539.928603 242.603661 L 539.928603 242.603661 L 540.228657 243.844405 C 540.28467 244.068079 540.316011 244.223664 540.351232 244.389772 L 540.351232 244.389772 L 540.459127 244.8885 L 540.67619 245.933057 C 540.750915 246.292645 540.829197 246.651749 540.890516 247.011834 L 540.890516 247.011834 C 541.028343 247.731266 541.135357 248.451458 541.262648 249.168376 L 541.262648 249.168376 C 541.480393 250.604244 541.661992 252.035242 541.787161 253.458357 L 541.787161 253.458357 C 542.051345 256.304735 542.118963 259.118306 541.999888 261.863815 L 541.999888 261.863815 C 541.767989 267.349045 540.768319 272.581978 539.434631 277.133907 L 539.434631 277.133907 C 539.103568 278.271603 538.751726 279.364449 538.403601 280.414564 L 538.403601 280.414564 C 538.049714 281.461301 537.668566 282.444669 537.318133 283.38961 L 537.318133 283.38961 C 536.955827 284.326602 536.586119 285.199206 536.247577 286.021314 L 536.247577 286.021314 C 535.896707 286.834826 535.558192 287.583476 535.25084 288.268916 L 535.25084 288.268916 C 534.619219 289.624573 534.09021 290.708373 533.712287 291.444639 L 533.712287 291.444639 C 533.522301 291.815199 533.3759 292.098739 533.277547 292.289784 L 533.277547 292.289784 C 533.176808 292.478065 533.125136 292.574564 533.125136 292.574564 L 533.125136 292.574564 L 533.542442 293.090148 C 533.542442 293.090148 533.653495 293.049006 533.866857 292.97029 L 533.866857 292.97029 C 534.075577 292.888401 534.394082 292.775558 534.785094 292.594864 L 534.785094 292.594864 C 535.573739 292.241601 536.717792 291.683836 538.083257 290.827794 L 538.083257 290.827794 C 538.774217 290.407024 539.515933 289.90753 540.300819 289.329665 L 540.300819 289.329665 C 541.097363 288.760875 541.918599 288.097608 542.77617 287.355292 L 542.77617 287.355292 C 543.644949 286.62137 544.513202 285.782032 545.406855 284.863427 L 545.406855 284.863427 C 546.306805 283.948261 547.203554 282.932985 548.089261 281.825466 L 548.089261 281.825466 C 549.861164 279.611045 551.582889 277.010203 553.080037 274.049749 L 553.080037 274.049749 C 554.579363 271.093152 555.841975 267.773573 556.725284 264.210344 L 556.725284 264.210344 C 557.612187 260.649498 558.114185 256.850377 558.18612 252.99451 L 558.18612 252.99451 C 558.215711 251.066583 558.151812 249.124572 557.975275 247.191063 L 557.975275 247.191063 C 557.88681 246.225385 557.775114 245.26015 557.632715 244.301488 L 557.632715 244.301488 C 557.570347 243.819717 557.489188 243.34262 557.411032 242.864939 L 557.411032 242.864939 C 557.336509 242.389614 557.250666 241.912832 557.142454 241.403062 L 557.142454 241.403062 L 556.989102 240.651319 L 556.83952 239.948824 L 556.556464 238.703645 C 556.380341 237.946601 556.204864 237.189109 556.029653 236.433361 L 556.029653 236.433361 C 555.719017 234.999162 555.425346 233.570341 555.198743 232.157764 L 555.198743 232.157764 C 554.726942 229.329796 554.430013 226.552134 554.316839 223.852384 L 554.316839 223.852384 C 554.07328 218.458447 554.60687 213.341644 555.618171 208.828354 L 555.618171 208.828354 C 556.116259 206.573532 556.739398 204.487219 557.370986 202.612514 L 557.370986 202.612514 C 557.996454 200.733202 558.666416 199.089988 559.252504 197.717407 L 559.252504 197.717407 C 559.842407 196.346085 560.369436 195.263656 560.735942 194.513732 L 560.735942 194.513732 C 560.925408 194.139616 561.070086 193.852831 561.167723 193.65936 L 561.167723 193.65936 C 561.263336 193.470714 561.322172 193.369723 561.322172 193.369723 L 561.322172 193.369723 L 560.918969 192.843386 C 560.918969 192.843386 560.808478 192.871951 560.583719 192.943369 Z " fill="url(#_lgradient_8)"/></g></g></svg>